<svg height="496pt" viewBox="0 0 496.00023 496" width="496pt" xmlns="http://www.w3.org/2000/svg"><path d="m488 176c4.417969 0 8-3.582031 8-8v-160c0-4.414062-3.582031-8-8-8h-94.054688c-8.546874 0-16.585937 3.328125-22.632812 9.375l-3.3125 3.3125-3.3125-3.3125c-6.039062-6.046875-14.078125-9.375-22.632812-9.375h-94.054688c-4.414062 0-8 3.585938-8 8v84.671875c-10.328125-3.078125-21.046875-4.671875-32-4.671875h-40c-61.152344 0-111.015625 49.265625-111.984375 110.191406l-55.261719 118.425782c-1.160156 2.480468-.96875 5.375.503906 7.679687 1.460938 2.3125 4.007813 3.703125 6.742188 3.703125h48v96c0 4.417969 3.585938 8 8 8h80v64h16v-72c0-4.414062-3.582031-8-8-8h-80v-96c0-4.414062-3.582031-8-8-8h-43.441406l50.691406-108.617188c.496094-1.054687.75-2.214843.75-3.382812 0-52.9375 43.0625-96 96-96h40c11.03125 0 21.753906 1.953125 32 5.585938v35.222656c-2.582031-.527344-5.265625-.808594-8-.808594-3.761719 0-7.320312.6875-10.769531 1.664062-5.789063-14.976562-20.246094-25.664062-37.230469-25.664062-19.34375 0-35.511719 13.808594-39.199219 32.082031-.273437-.011719-.527343-.082031-.800781-.082031-15.183594 0-27.871094 10.65625-31.136719 24.863281-14.207031 3.265625-24.863281 15.953125-24.863281 31.136719 0 17.648438 14.351562 32 32 32h40v152c0 4.417969 3.585938 8 8 8h92.761719c2.328125 7.777344 5.503906 15.28125 9.496093 22.433594l-11.914062 11.910156c-3.128906 3.128906-3.128906 8.183594 0 11.3125l32 32c3.128906 3.128906 8.183594 3.128906 11.3125 0l11.910156-11.914062c7.152344 4 14.65625 7.171874 22.433594 9.496093v12.761719c0 4.417969 3.585938 8 8 8h48c4.417969 0 8-3.582031 8-8v-12.75c7.832031-2.328125 15.34375-5.496094 22.464844-9.472656l11.878906 11.878906c3.128906 3.128906 8.183594 3.128906 11.3125 0l32-32c3.128906-3.128906 3.128906-8.183594 0-11.3125l-11.878906-11.878906c3.976562-7.121094 7.144531-14.632813 9.472656-22.464844h12.75c4.417969 0 8-3.582031 8-8v-48c0-4.414062-3.582031-8-8-8h-12.761719c-2.324219-7.777344-5.503906-15.28125-9.492187-22.433594l11.910156-11.910156c3.128906-3.128906 3.128906-8.183594 0-11.3125l-32-32c-3.128906-3.128906-8.183594-3.128906-11.3125 0l-11.910156 11.914062c-7.152344-4-14.65625-7.167968-22.433594-9.496093v-84.761719zm-229.65625 125.65625 11.878906 11.878906c-3.972656 7.121094-7.140625 14.632813-9.46875 22.464844h-52.753906v-80h40c22.054688 0 40-17.945312 40-40 0-13.128906-6.449219-24.703125-16.246094-32h.246094c0-2.734375-.28125-5.414062-.808594-8h64.808594v84.753906c-7.832031 2.328125-15.34375 5.496094-22.464844 9.46875l-11.878906-11.878906c-3.128906-3.128906-8.183594-3.128906-11.3125 0l-32 32c-3.128906 3.128906-3.128906 8.183594 0 11.3125zm131.816406-26.976562c10.3125 2.441406 20.144532 6.609374 29.230469 12.382812 3.167969 2.007812 7.304687 1.554688 9.953125-1.09375l10.65625-10.65625 20.6875 20.6875-10.664062 10.664062c-2.65625 2.648438-3.101563 6.785157-1.09375 9.953126 5.773437 9.085937 9.941406 18.925781 12.382812 29.230468.855469 3.609375 4.078125 6.160156 7.785156 6.160156h10.902344v32h-10.894531c-3.707031 0-6.929688 2.542969-7.785157 6.160157-2.464843 10.417969-6.625 20.265625-12.351562 29.265625-2.015625 3.167968-1.558594 7.300781 1.085938 9.949218l10.632812 10.617188-20.6875 20.6875-10.632812-10.632812c-2.648438-2.65625-6.789063-3.109376-9.949219-1.085938-9 5.726562-18.839844 9.886719-29.265625 12.351562-3.609375.855469-6.160156 4.078126-6.160156 7.785157v10.894531h-32v-10.894531c0-3.707031-2.542969-6.929688-6.160157-7.785157-10.3125-2.441406-20.144531-6.609374-29.230469-12.382812-3.160156-2.015625-7.304687-1.5625-9.953124 1.09375l-10.648438 10.65625-20.6875-20.6875 10.664062-10.664062c2.65625-2.648438 3.105469-6.785157 1.09375-9.953126-5.773437-9.085937-9.941406-18.925781-12.382812-29.230468-.855469-3.609375-4.078125-6.160156-7.785156-6.160156h-90.902344v-151.992188c0-4.414062-3.582031-8-8-8h-48c-8.824219 0-16-7.175781-16-16s7.175781-16 16-16 16 7.175781 16 16h16c0-14.359375-9.574219-26.398438-22.625-30.441406 2.480469-5.613282 8.097656-9.558594 14.625-9.558594 8.824219 0 16 7.175781 16 16h16c0-11.65625-6.328125-21.769531-15.664062-27.359375 1.65625-11.640625 11.585937-20.640625 23.664062-20.640625 10.832031 0 19.902344 7.257812 22.878906 17.128906-9 7.34375-14.878906 18.375-14.878906 30.871094 0 22.054688 17.945312 40 40 40v-16c-13.230469 0-24-10.769531-24-24s10.769531-24 24-24c10.664062 0 19.625 7.039062 22.734375 16.679688-2.199219-.375-4.429687-.679688-6.734375-.679688h-8v16h8c13.230469 0 24 10.769531 24 24s-10.769531 24-24 24h-48c-4.414062 0-8 3.585938-8 8v96c0 4.417969 3.585938 8 8 8h66.894531c3.707031 0 6.929688-2.542969 7.785157-6.160156 2.464843-10.414063 6.625-20.265625 12.351562-29.265625 2.015625-3.167969 1.5625-7.300781-1.085938-9.949219l-10.632812-10.625 20.6875-20.6875 10.632812 10.632812c2.65625 2.65625 6.792969 3.101563 9.953126 1.085938 9-5.726562 18.839843-9.886719 29.261718-12.351562 3.609375-.855469 6.160156-4.078126 6.160156-7.785157v-98.894531c0-4.414062-3.582031-8-8-8h-80.214843c-2.234375-2.953125-4.847657-5.558594-7.792969-7.792969v-136.207031h86.054688c4.273437 0 8.296874 1.664062 11.320312 4.6875l6.625 6.625v132.6875h16v-132.6875l6.625-6.625c3.023438-3.023438 7.039062-4.6875 11.320312-4.6875h86.054688v144h-88c-4.414062 0-8 3.585938-8 8v98.894531c0 3.707031 2.542969 6.929688 6.160156 7.785157zm0 0"/><path d="m288 368c0 44.113281 35.886719 80 80 80s80-35.886719 80-80-35.886719-80-80-80-80 35.886719-80 80zm144 0c0 35.289062-28.710938 64-64 64s-64-28.710938-64-64 28.710938-64 64-64 64 28.710938 64 64zm0 0"/><path d="m320 368c0 26.472656 21.527344 48 48 48s48-21.527344 48-48-21.527344-48-48-48-48 21.527344-48 48zm80 0c0 17.648438-14.351562 32-32 32s-32-14.351562-32-32 14.351562-32 32-32 32 14.351562 32 32zm0 0"/><path d="m272 32h48v16h-48zm0 0"/><path d="m272 64h48v16h-48zm0 0"/><path d="m272 96h72v16h-72zm0 0"/><path d="m272 128h72v16h-72zm0 0"/><path d="m392 32h72v16h-72zm0 0"/><path d="m392 64h72v16h-72zm0 0"/><path d="m416 96h48v16h-48zm0 0"/><path d="m416 128h48v16h-48zm0 0"/></svg>